<svg width="1000" height="1000" viewBox="0 0 1000 1000" fill="none" xmlns="http://www.w3.org/2000/svg">
<path d="M591.195 184.838C645.374 68.1698 798.432 137.767 784.051 226.583L727.822 578.666C731.744 582.435 732.405 594.33 732.405 605.635C746.486 1011.55 248.35 963.679 218.639 668.44C212.701 609.428 218.639 461.182 218.639 461.182C218.639 385.815 332.352 348.726 355.884 383.898C361.684 367.971 406.216 351.939 417.077 358.332L393.529 202.495C375.889 74.966 581.382 63.4437 591.195 184.838Z" fill="white"/>
<path fill-rule="evenodd" clip-rule="evenodd" d="M588.916 411.487L616.321 213.374C627.739 132.068 762.477 141.229 749.917 230.552L692.825 578.68C696.25 582.115 700.818 586.696 700.818 597.003C701.72 622.719 700.818 646.245 700.818 668.003C650.572 961.164 265.769 901.615 252.071 654.261V465.309C252.071 396.6 343.414 392.019 363.968 424.083C386.805 386.293 422.202 382.858 455.316 396.6L426.769 206.504C415.351 119.472 543.238 110.311 555.798 181.31C561.44 213.202 579.78 348.121 588.916 411.487ZM454.18 205.358L496.428 477.906C511.045 476.073 525.354 480.196 530.682 482.487L666.562 558.067L721.371 224.826C725.938 179.02 651.718 169.858 644.867 213.374L608.328 450.422C604.902 473.326 574.072 472.18 569.505 451.568L529.542 191.616C516.98 138.939 447.327 157.261 454.18 205.358ZM376.528 613.035C348.21 657.009 301.547 645.863 281.754 634.793C293.173 899.325 643.451 889.019 673.409 670.293C675.791 652.897 673.409 615.326 673.409 606.164C673.409 597.003 668.08 591.659 665.416 590.132L528.394 512.261C481.578 487.068 449.606 551.197 485.004 574.1L569.5 622.196C588.912 634.793 574.068 657.696 553.515 646.245L477.011 602.729C451.89 635.938 403.932 634.793 376.528 613.035ZM354.833 465.309C354.833 427.519 281.754 424.083 281.754 465.309C281.754 465.309 278.329 550.051 281.754 590.132C285.18 630.213 357.117 622.196 357.117 585.551L354.833 465.309ZM454.174 583.261C446.181 609.6 384.521 608.455 384.521 567.229V451.568C384.521 406.907 459.883 405.761 459.883 449.277V498.519C430.647 529.668 443.895 567.992 454.174 583.261Z" fill="black"/>
<path d="M459.883 498.519C430.647 529.668 443.895 567.992 454.174 583.261C446.181 609.6 384.521 608.455 384.521 567.229V451.568C384.521 406.907 459.883 405.761 459.883 449.277M459.883 498.519C459.883 466.455 459.883 452.331 459.883 449.277M459.883 498.519V449.277M591.195 184.838C645.374 68.1698 798.432 137.767 784.051 226.583L727.822 578.666C731.744 582.435 732.405 594.33 732.405 605.635C746.486 1011.55 248.35 963.679 218.639 668.44C212.701 609.428 218.639 461.182 218.639 461.182C218.639 385.815 332.352 348.726 355.884 383.898C361.684 367.971 406.216 351.939 417.077 358.332L393.529 202.495C375.889 74.966 581.382 63.4437 591.195 184.838ZM496.428 477.906L454.18 205.358C447.327 157.261 516.98 138.939 529.542 191.616L569.505 451.568C574.072 472.18 604.902 473.326 608.328 450.422L644.867 213.374C651.718 169.858 725.938 179.02 721.371 224.826L666.562 558.067L530.682 482.487C525.354 480.196 511.045 476.073 496.428 477.906ZM588.916 411.487L616.321 213.374C627.739 132.068 762.477 141.229 749.917 230.552L692.825 578.68C696.25 582.115 700.818 586.696 700.818 597.003C701.72 622.719 700.818 646.245 700.818 668.003C650.572 961.164 265.769 901.615 252.071 654.261V465.309C252.071 396.6 343.414 392.019 363.968 424.083C386.805 386.293 422.202 382.858 455.316 396.6L426.769 206.504C415.351 119.472 543.238 110.311 555.798 181.31C561.44 213.202 579.78 348.121 588.916 411.487ZM281.754 634.793C301.547 645.863 348.21 657.009 376.528 613.035C403.932 634.793 451.89 635.938 477.011 602.729L553.515 646.245C574.068 657.696 588.912 634.793 569.5 622.196L485.004 574.1C449.606 551.197 481.578 487.068 528.394 512.261L665.416 590.132C668.08 591.659 673.409 597.003 673.409 606.164C673.409 615.326 675.791 652.897 673.409 670.293C643.451 889.019 293.173 899.325 281.754 634.793ZM281.754 465.309C281.754 424.083 354.833 427.519 354.833 465.309L357.117 585.551C357.117 622.196 285.18 630.213 281.754 590.132C278.329 550.051 281.754 465.309 281.754 465.309Z" stroke="black"/>
</svg>
