<svg width="106" height="140" viewBox="0 0 106 140" fill="none" xmlns="http://www.w3.org/2000/svg">
<g filter="url(#filter0_di_168_358)">
<path d="M66.7078 22.7257C74.8966 5.22547 98.0301 15.665 95.8566 28.9874L87.3579 81.7999C87.9507 82.3652 88.0507 84.1495 88.0507 85.8452C90.1789 146.732 14.8895 139.552 10.3989 95.2661C9.50134 86.4142 10.3989 64.1773 10.3989 64.1773C10.3989 52.8723 27.5858 47.309 31.1424 52.5846C32.019 50.1956 38.7497 47.7908 40.3912 48.7497L36.8322 25.3742C34.166 6.2449 65.2247 4.51656 66.7078 22.7257Z" fill="black"/>
<path fill-rule="evenodd" clip-rule="evenodd" d="M66.3635 56.723L70.5054 27.0062C72.2312 14.8102 92.5959 16.1844 90.6975 29.5828L82.0684 81.802C82.5862 82.3173 83.2765 83.0044 83.2765 84.5504C83.4128 88.4079 83.2765 91.9367 83.2765 95.2004C75.6822 139.175 17.5221 130.242 15.4518 93.1391V64.7964C15.4518 54.49 29.2577 53.8028 32.3642 58.6125C35.8158 52.944 41.1658 52.4286 46.1707 54.4899L41.8562 25.9755C40.1304 12.9207 59.4595 11.5466 61.3579 22.1965C62.2107 26.9802 64.9826 47.2182 66.3635 56.723ZM45.999 25.8037L52.3845 66.6859C54.5938 66.411 56.7566 67.0295 57.5618 67.373L78.099 78.7101L86.3829 28.7239C87.0733 21.8529 75.8555 20.4788 74.82 27.0062L69.2974 62.5634C68.7796 65.9988 64.1199 65.8271 63.4296 62.7351L57.3894 23.7423C55.4908 15.8408 44.9633 18.5892 45.999 25.8037ZM34.2626 86.9553C29.9825 93.5514 22.9297 91.8795 19.9383 90.219C21.6641 129.899 74.6059 128.353 79.1338 95.544C79.494 92.9346 79.1338 87.2988 79.1338 85.9246C79.1338 84.5504 78.3285 83.7488 77.9258 83.5198L57.216 71.8392C50.1401 68.0602 45.3078 77.6795 50.6578 81.115L63.4289 88.3295C66.3628 90.219 64.1192 93.6545 61.0128 91.9367L49.4498 85.4093C45.653 90.3908 38.4045 90.219 34.2626 86.9553ZM30.9835 64.7964C30.9835 59.1279 19.9383 58.6125 19.9383 64.7964C19.9383 64.7964 19.4205 77.5077 19.9383 83.5198C20.456 89.5319 31.3287 88.3295 31.3287 82.8327L30.9835 64.7964ZM45.9981 82.4892C44.7901 86.44 35.4706 86.2682 35.4706 80.0843V62.7351C35.4706 56.036 46.861 55.8642 46.861 62.3916V69.7779C42.4422 74.4501 44.4446 80.1988 45.9981 82.4892Z" fill="white"/>
</g>
<defs>
<filter id="filter0_di_168_358" x="0" y="0" width="106" height="140" filterUnits="userSpaceOnUse" color-interpolation-filters="sRGB">
<feFlood flood-opacity="0" result="BackgroundImageFix"/>
<feColorMatrix in="SourceAlpha" type="matrix" values="0 0 0 0 0 0 0 0 0 0 0 0 0 0 0 0 0 0 127 0" result="hardAlpha"/>
<feOffset/>
<feGaussianBlur stdDeviation="5"/>
<feComposite in2="hardAlpha" operator="out"/>
<feColorMatrix type="matrix" values="0 0 0 0 1 0 0 0 0 1 0 0 0 0 1 0 0 0 0.2 0"/>
<feBlend mode="normal" in2="BackgroundImageFix" result="effect1_dropShadow_168_358"/>
<feBlend mode="normal" in="SourceGraphic" in2="effect1_dropShadow_168_358" result="shape"/>
<feColorMatrix in="SourceAlpha" type="matrix" values="0 0 0 0 0 0 0 0 0 0 0 0 0 0 0 0 0 0 127 0" result="hardAlpha"/>
<feOffset/>
<feGaussianBlur stdDeviation="32"/>
<feComposite in2="hardAlpha" operator="arithmetic" k2="-1" k3="1"/>
<feColorMatrix type="matrix" values="0 0 0 0 1 0 0 0 0 1 0 0 0 0 1 0 0 0 0.25 0"/>
<feBlend mode="normal" in2="shape" result="effect2_innerShadow_168_358"/>
</filter>
</defs>
</svg>
