<svg width="1000" height="1000" viewBox="0 0 1000 1000" fill="none" xmlns="http://www.w3.org/2000/svg">
<path d="M568.561 263.628C609.219 176.127 724.08 228.325 713.288 294.937L671.091 559C674.034 561.826 674.531 570.747 674.531 579.226C685.098 883.662 311.277 847.759 288.981 626.33C284.524 582.071 288.981 470.887 288.981 470.887C288.981 414.362 374.315 386.545 391.974 412.923C396.327 400.978 429.746 388.954 437.896 393.749L420.225 276.871C406.987 181.225 561.197 172.583 568.561 263.628Z" fill="white"/>
<path fill-rule="evenodd" clip-rule="evenodd" d="M566.851 433.615L587.416 285.031C595.985 224.051 697.098 230.922 687.672 297.914L644.828 559.01C647.399 561.587 650.826 565.022 650.826 572.752C651.503 592.04 650.826 609.684 650.826 626.002C613.12 845.873 324.348 801.211 314.069 615.695V473.982C314.069 422.45 382.617 419.014 398.041 443.063C415.178 414.72 441.742 412.143 466.592 422.45L445.17 279.878C436.601 214.604 532.572 207.733 541.998 260.982C546.232 284.901 559.995 386.091 566.851 433.615ZM465.739 279.018L497.444 483.429C508.413 482.055 519.152 485.147 523.15 486.865L625.12 543.551L666.25 293.62C669.678 259.265 613.98 252.394 608.839 285.031L581.418 462.817C578.848 479.994 555.712 479.135 552.284 463.676L522.294 268.712C512.867 229.204 460.597 242.946 465.739 279.018ZM407.466 584.776C386.216 617.757 351.197 609.397 336.345 601.095C344.914 799.494 607.776 791.764 630.258 627.72C632.046 614.673 630.258 586.494 630.258 579.623C630.258 572.752 626.259 568.744 624.259 567.599L521.433 509.196C486.3 490.301 462.307 538.397 488.871 555.575L552.281 591.647C566.848 601.095 555.708 618.272 540.284 609.684L482.873 577.047C464.021 601.954 428.032 601.095 407.466 584.776ZM391.186 473.982C391.186 445.64 336.345 443.063 336.345 473.982C336.345 473.982 333.774 537.539 336.345 567.599C338.915 597.659 392.899 591.647 392.899 564.164L391.186 473.982ZM465.735 562.446C459.737 582.2 413.465 581.341 413.465 550.422V463.676C413.465 430.18 470.019 429.321 470.019 461.958V498.889C448.079 522.251 458.021 550.994 465.735 562.446Z" fill="black"/>
<path d="M470.019 498.889C448.08 522.251 458.021 550.994 465.735 562.446C459.737 582.2 413.465 581.341 413.465 550.422V463.676C413.465 430.18 470.019 429.321 470.019 461.958M470.019 498.889C470.019 474.841 470.019 464.248 470.019 461.958M470.019 498.889V461.958M568.561 263.628C609.219 176.127 724.08 228.325 713.288 294.937L671.091 559C674.034 561.826 674.531 570.747 674.531 579.226C685.098 883.662 311.277 847.759 288.981 626.33C284.524 582.071 288.981 470.887 288.981 470.887C288.981 414.362 374.315 386.545 391.974 412.923C396.327 400.978 429.746 388.954 437.896 393.749L420.225 276.871C406.987 181.225 561.197 172.583 568.561 263.628ZM497.444 483.429L465.739 279.018C460.597 242.946 512.867 229.204 522.294 268.712L552.284 463.676C555.712 479.135 578.848 479.994 581.418 462.817L608.839 285.031C613.98 252.394 669.678 259.265 666.25 293.62L625.12 543.551L523.15 486.865C519.152 485.147 508.413 482.055 497.444 483.429ZM566.851 433.615L587.416 285.031C595.985 224.051 697.098 230.922 687.672 297.914L644.828 559.01C647.399 561.587 650.826 565.022 650.826 572.752C651.503 592.04 650.826 609.684 650.826 626.002C613.12 845.873 324.348 801.211 314.069 615.695V473.982C314.069 422.45 382.617 419.014 398.041 443.063C415.178 414.72 441.742 412.143 466.592 422.45L445.17 279.878C436.601 214.604 532.572 207.733 541.998 260.982C546.232 284.901 559.995 386.091 566.851 433.615ZM336.345 601.095C351.197 609.397 386.216 617.757 407.466 584.776C428.032 601.095 464.021 601.954 482.873 577.047L540.284 609.684C555.708 618.272 566.848 601.095 552.281 591.647L488.871 555.575C462.307 538.397 486.3 490.301 521.433 509.196L624.259 567.599C626.259 568.744 630.258 572.752 630.258 579.623C630.258 586.494 632.046 614.673 630.258 627.72C607.776 791.764 344.914 799.494 336.345 601.095ZM336.345 473.982C336.345 443.063 391.186 445.64 391.186 473.982L392.899 564.164C392.899 591.647 338.915 597.659 336.345 567.599C333.774 537.539 336.345 473.982 336.345 473.982Z" stroke="black"/>
</svg>
